<svg width="16" height="16" viewBox="0 0 16 16" fill="none" xmlns="http://www.w3.org/2000/svg">
<g id="Calendar Range" clip-path="url(#clip0_469_51760)">
<path id="Calendar Range_2" d="M7.75 9.74707H11.25C11.6656 9.74707 12 9.41269 12 8.99707C12 8.58145 11.6644 8.24707 11.2781 8.24707H7.72188C7.33438 8.24707 7 8.58145 7 8.99707C7 9.41269 7.33437 9.74707 7.75 9.74707ZM11.6656 10.9971H10.3322C10.15 10.9971 10 11.1471 10 11.3314V12.6649C10 12.8471 10.15 12.9971 10.3344 12.9971H11.6678C11.85 12.9971 12 12.8471 12 12.6627V11.3293C12 11.1471 11.85 10.9971 11.6656 10.9971ZM4.33437 9.99707H5.66781C5.85 9.99707 6 9.84707 6 9.66269V8.33145C6 8.14707 5.85 7.99707 5.66563 7.99707H4.33437C4.15 7.99707 4 8.14707 4 8.33145V9.66488C4 9.84707 4.15 9.99707 4.33437 9.99707ZM13 1.99707H11.75V0.74707C11.75 0.333008 11.4141 -0.00292969 11.0281 -0.00292969C10.6422 -0.00292969 10.25 0.333008 10.25 0.74707V1.99707H5.75V0.74707C5.75 0.333008 5.41563 -0.00292969 5 -0.00292969C4.58437 -0.00292969 4.25 0.333008 4.25 0.74707V1.99707H3C1.89531 1.99707 1 2.89238 1 3.99707V13.9971C1 15.1018 1.89531 15.9971 3 15.9971H13C14.1047 15.9971 15 15.1018 15 13.9971V3.99707C15 2.89238 14.1031 1.99707 13 1.99707ZM13.5 13.9971C13.5 14.2727 13.2756 14.4971 13 14.4971H3C2.72406 14.4971 2.5 14.2727 2.5 13.9971V5.99707H13.5V13.9971ZM4.75 12.7471H8.25C8.66563 12.7471 9 12.4127 9 11.9971C9 11.5814 8.66437 11.2471 8.27812 11.2471H4.72187C4.33437 11.2471 4 11.5814 4 11.9971C4 12.4127 4.33437 12.7471 4.75 12.7471Z" fill="#97979B"/>
</g>
<defs>
<clipPath id="clip0_469_51760">
<rect width="16" height="16" fill="white" transform="translate(0 -0.00292969)"/>
</clipPath>
</defs>
</svg>
