<svg width="16" height="16" viewBox="0 0 16 16" fill="none" xmlns="http://www.w3.org/2000/svg">
<path d="M12.9724 11.5H3.02419L3.65997 11.0473L3.69399 11.0231L3.72351 10.9936C4.11581 10.6013 4.38543 9.99664 4.55738 9.42698C4.73299 8.84521 4.82996 8.22129 4.82996 7.73V5.68C4.82996 3.92614 6.2561 2.5 8.00996 2.5C9.76382 2.5 11.19 3.92614 11.19 5.68V7.73C11.19 8.20865 11.2811 8.8306 11.4496 9.41382C11.6142 9.98343 11.8751 10.5958 12.2635 10.9906L12.2951 11.0228L12.332 11.0487L12.9724 11.5Z" stroke="white"/>
<path opacity="0.5" d="M10 13H6C6 14.1 6.9 15 8 15C9.1 15 10 14.1 10 13Z" fill="white"/>
</svg>
