<svg width="17" height="16" viewBox="0 0 17 16" fill="none" xmlns="http://www.w3.org/2000/svg">
<path opacity="0.5" d="M0.863281 3C0.863281 2.44772 1.311 2 1.86328 2H12.8633C13.4156 2 13.8633 2.44772 13.8633 3V7H6.86328L1.86328 14V14C1.311 14 0.863281 13.5523 0.863281 13V7V3Z" fill="white"/>
<path d="M16.7238 8.50023C16.6193 8.32778 16.5138 8.22023 16.3638 8.13023C16.2138 8.04023 16.0438 7.99023 15.8638 7.99023H7.66375L3.34375 14.0002C6.84347 14.0002 8.5934 13.9802 13.2338 13.9802C13.3938 13.9802 13.5438 13.9402 13.6838 13.8602C13.8238 13.7902 13.9437 13.6802 14.0337 13.5502L16.7537 9.48023C16.8437 9.33023 16.8633 9.18 16.8633 9C16.8633 8.92696 16.8261 8.66926 16.7238 8.50023Z" fill="white"/>
</svg>
