<svg width="20" height="20" viewBox="0 0 20 20" fill="none" xmlns="http://www.w3.org/2000/svg">
<path opacity="0.5" d="M9 16V18H1C1 16.6667 1 15.3334 1.00001 14.0001C6.33334 13.9999 1.66667 14 7 14C7.53043 14 8.03923 14.2108 8.41431 14.5859C8.78938 14.9609 9 15.4696 9 16Z" fill="white"/>
<path d="M14.5 14.5V6.49998C14.5586 6.0924 14.5214 5.67681 14.3914 5.28611C14.2613 4.89542 14.0419 4.54041 13.7507 4.24925C13.4596 3.95808 13.1046 3.73867 12.7139 3.60862C12.3232 3.47857 11.9076 3.44141 11.5 3.49998H1.5" stroke="white" stroke-width="1.5" stroke-miterlimit="10" stroke-linecap="round"/>
<path d="M10.5 11.5L14.5 15.5L18.5 11.5" stroke="white" stroke-width="1.5" stroke-miterlimit="10" stroke-linecap="round"/>
</svg>
