<svg width="20" height="20" viewBox="0 0 20 20" fill="none" xmlns="http://www.w3.org/2000/svg">
<path d="M6.43957 14.3801C7.75401 14.3801 8.81957 13.3146 8.81957 12.0001C8.81957 10.6857 7.75401 9.62012 6.43957 9.62012C5.12513 9.62012 4.05957 10.6857 4.05957 12.0001C4.05957 13.3146 5.12513 14.3801 6.43957 14.3801Z" fill="white"/>
<path d="M13.5597 14.3801C14.8741 14.3801 15.9397 13.3146 15.9397 12.0001C15.9397 10.6857 14.8741 9.62012 13.5597 9.62012C12.2452 9.62012 11.1797 10.6857 11.1797 12.0001C11.1797 13.3146 12.2452 14.3801 13.5597 14.3801Z" fill="white"/>
<path d="M10.0001 8.38012C11.3146 8.38012 12.3801 7.31456 12.3801 6.00012C12.3801 4.68568 11.3146 3.62012 10.0001 3.62012C8.68568 3.62012 7.62012 4.68568 7.62012 6.00012C7.62012 7.31456 8.68568 8.38012 10.0001 8.38012Z" fill="white"/>
<path d="M9.9996 2.12012C11.8227 2.11919 13.5898 2.75045 14.9996 3.90634C16.4095 5.06224 17.375 6.67124 17.7315 8.45917C18.088 10.2471 17.8135 12.1034 16.9548 13.7116C16.0961 15.3199 14.7064 16.5806 13.0223 17.279C11.3383 17.9774 9.46414 18.0703 7.7193 17.5417C5.97445 17.0132 4.46684 15.8961 3.45337 14.3806C2.43989 12.8651 1.98324 11.0451 2.16125 9.23072C2.33926 7.4163 3.14091 5.71973 4.42959 4.43012C5.15926 3.69605 6.02723 3.11394 6.9833 2.71744C7.93937 2.32094 8.96457 2.11791 9.9996 2.12012V2.12012ZM9.9996 0.62012C7.82942 0.618888 5.72596 1.37021 4.04763 2.74604C2.36931 4.12187 1.21997 6.03709 0.795467 8.16535C0.370967 10.2936 0.697583 12.5032 1.71963 14.4177C2.74168 16.3321 4.39593 17.8329 6.40051 18.6644C8.40509 19.4958 10.636 19.6065 12.713 18.9775C14.79 18.3485 16.5847 17.0188 17.7912 15.2148C18.9977 13.4109 19.5413 11.2445 19.3295 9.08466C19.1177 6.92484 18.1635 4.90528 16.6296 3.37012C15.7601 2.49761 14.7268 1.80552 13.589 1.33359C12.4512 0.861657 11.2314 0.619182 9.9996 0.62012V0.62012Z" fill="white"/>
</svg>
