<svg width="43" height="43" viewBox="0 0 43 43" fill="none" xmlns="http://www.w3.org/2000/svg">
<circle cx="21.5001" cy="21.4874" r="20.2276" fill="url(#paint0_radial_13868_16982)"/>
<path fill-rule="evenodd" clip-rule="evenodd" d="M21.5003 40.1174C32.0648 40.1174 40.6291 31.5531 40.6291 20.9886C40.6291 10.4241 32.0648 1.85981 21.5003 1.85981C10.9358 1.85981 2.37153 10.4241 2.37153 20.9886C2.37153 31.5531 10.9358 40.1174 21.5003 40.1174ZM21.5003 41.3717C32.7576 41.3717 41.8834 32.2459 41.8834 20.9886C41.8834 9.7313 32.7576 0.605469 21.5003 0.605469C10.243 0.605469 1.11719 9.7313 1.11719 20.9886C1.11719 32.2459 10.243 41.3717 21.5003 41.3717Z" fill="#313131"/>
<path fill-rule="evenodd" clip-rule="evenodd" d="M21.5003 40.6154C32.0648 40.6154 40.6291 32.0512 40.6291 21.4866C40.6291 10.9221 32.0648 2.35786 21.5003 2.35786C10.9358 2.35786 2.37153 10.9221 2.37153 21.4866C2.37153 32.0512 10.9358 40.6154 21.5003 40.6154ZM21.5003 41.8698C32.7576 41.8698 41.8834 32.7439 41.8834 21.4866C41.8834 10.2293 32.7576 1.10352 21.5003 1.10352C10.243 1.10352 1.11719 10.2293 1.11719 21.4866C1.11719 32.7439 10.243 41.8698 21.5003 41.8698Z" fill="url(#paint1_linear_13868_16982)"/>
<path fill-rule="evenodd" clip-rule="evenodd" d="M40.7846 21.4866C40.7846 32.137 32.1507 40.7709 21.5003 40.7709C10.8499 40.7709 2.21606 32.137 2.21606 21.4866C2.21606 10.8362 10.8499 2.20238 21.5003 2.20238C32.1507 2.20238 40.7846 10.8362 40.7846 21.4866ZM21.5003 41.7143C32.6717 41.7143 41.7279 32.6581 41.7279 21.4866C41.7279 10.3152 32.6717 1.25899 21.5003 1.25899C10.3289 1.25899 1.27267 10.3152 1.27267 21.4866C1.27267 32.6581 10.3289 41.7143 21.5003 41.7143ZM40.6291 21.4866C40.6291 32.0512 32.0648 40.6154 21.5003 40.6154C10.9358 40.6154 2.37153 32.0512 2.37153 21.4866C2.37153 10.9221 10.9358 2.35786 21.5003 2.35786C32.0648 2.35786 40.6291 10.9221 40.6291 21.4866ZM41.8834 21.4866C41.8834 32.7439 32.7576 41.8698 21.5003 41.8698C10.243 41.8698 1.11719 32.7439 1.11719 21.4866C1.11719 10.2293 10.243 1.10352 21.5003 1.10352C32.7576 1.10352 41.8834 10.2293 41.8834 21.4866Z" fill="url(#paint2_radial_13868_16982)"/>
<g filter="url(#filter0_d_13868_16982)">
<path d="M33.478 24.0323C31.8027 25.733 29.9634 27.4558 28.6239 26.7119C28.6141 25.7861 28.5508 19.6791 28.5508 17.0557C28.5508 13.2346 32.2094 10.3859 32.2094 10.3859H32.2069L31.8673 10.0128H31.8648C29.8547 10.3715 27.4412 11.0777 24.8829 13.5714C24.6875 13.7627 24.4645 14.0027 24.2263 14.2889C23.126 13.4514 21.7032 13.7052 21.7032 13.7052L22.0452 14.0783C22.1906 14.1576 22.336 14.2657 22.4763 14.3956C22.9145 14.9519 23.2395 15.6972 23.2395 16.3538V26.2835C23.2395 26.2835 21.5633 27.746 20.2702 27.746C19.7451 27.746 19.3582 27.5504 19.0841 27.318C18.931 27.105 18.8656 26.9342 18.8656 26.9342V14.6708L18.5235 14.2976C18.3149 14.4683 17.8353 14.6207 17.4429 14.3785C17.2919 14.106 17.1932 13.7011 17.1932 13.1146C17.1932 11.7959 18.1535 10.2209 19.8599 9.25596L19.5179 8.88281C17.79 9.1528 15.5366 9.80653 13.2215 11.784C11.3676 13.3664 8.93278 16.5501 8.92773 21.2124L9.26979 21.5856C9.26979 21.5856 10.4797 17.7157 12.0437 17.3607C12.5881 17.2374 13.0352 17.3704 13.3588 17.6225C13.5362 17.894 13.6214 18.2074 13.5996 18.485V27.5722C13.5996 28.4935 12.9997 28.6947 12.4477 28.6847C11.9763 28.676 11.3109 28.5097 11.3109 28.5097C11.6553 28.9785 12.0155 29.4058 12.3868 29.795C15.5033 33.3325 19.5385 34.002 21.4151 33.9927L24.9167 30.5036L26.6649 32.4458C26.6663 32.4451 26.6678 32.4445 26.6692 32.4438L27.007 32.819C31.9561 30.4503 33.4659 26.0217 33.82 24.4055L33.478 24.0323Z" fill="#313131"/>
</g>
<path fill-rule="evenodd" clip-rule="evenodd" d="M33.8207 24.4054C33.4666 26.0216 31.9568 30.4502 27.0077 32.8189L24.9207 30.5002L21.4158 33.9926C19.388 34.0026 14.8397 33.2201 11.6537 28.8828C11.6537 28.8828 12.3191 29.049 12.7905 29.0577C13.3425 29.0677 13.9424 28.8665 13.9424 27.9453V18.8581C14.0016 18.1031 13.2694 17.0831 12.0444 17.3606C10.4804 17.7156 9.27051 21.5855 9.27051 21.5855C9.27555 16.9231 11.7104 13.7395 13.5643 12.157C15.8794 10.1796 18.1328 9.52585 19.8606 9.25586C18.1542 10.2208 17.1939 11.7958 17.1939 13.1145C17.1939 15.2344 18.4844 14.9832 18.8663 14.6707V26.9341C18.8663 26.9341 18.9419 27.1316 19.1208 27.3665C19.3779 27.7053 19.8493 28.119 20.613 28.119C21.9061 28.119 23.5822 26.6566 23.5822 26.6566V16.7269C23.5822 15.7169 22.8135 14.4969 22.046 14.0782C22.046 14.0782 23.4688 13.8245 24.569 14.6619C24.8072 14.3757 25.0303 14.1357 25.2256 13.9445C27.784 11.4508 30.1974 10.7446 32.2076 10.3858H32.2101C32.2101 10.3858 28.5515 13.2345 28.5515 17.0556C28.5515 19.898 28.6259 26.8303 28.6259 26.8303C29.9819 28.1315 31.9984 26.2553 33.8207 24.4054Z" fill="url(#paint3_linear_13868_16982)"/>
<path fill-rule="evenodd" clip-rule="evenodd" d="M27.0077 32.8189C31.6847 30.5804 33.2902 26.5023 33.7515 24.6966C33.7783 24.5916 33.8013 24.4942 33.8207 24.4054C33.7512 24.476 33.6813 24.5467 33.6112 24.6172C31.8454 26.394 29.9302 28.0818 28.6259 26.8303C28.6259 26.8303 28.5515 19.898 28.5515 17.0556C28.5515 13.8326 31.1544 11.3014 31.9693 10.588C32.1058 10.4685 32.1921 10.4 32.2076 10.3878C32.2077 10.3877 32.2078 10.3876 32.2079 10.3876C32.2094 10.3864 32.2101 10.3858 32.2101 10.3858H32.2076C32.1056 10.404 32.0027 10.4231 31.8987 10.4433C29.9523 10.8208 27.6543 11.5773 25.2256 13.9445C25.0303 14.1357 24.8072 14.3757 24.569 14.6619C23.7508 14.0391 22.7541 14.0198 22.297 14.0508C22.1394 14.0615 22.046 14.0782 22.046 14.0782C22.1151 14.1159 22.1842 14.1601 22.2528 14.2101C22.9457 14.715 23.5822 15.8079 23.5822 16.7269V26.6566C23.5822 26.6566 21.9061 28.119 20.613 28.119C19.8493 28.119 19.3779 27.7053 19.1208 27.3665C18.9419 27.1316 18.8663 26.9341 18.8663 26.9341V14.6707C18.8244 14.705 18.7716 14.7385 18.7108 14.7682C18.2169 15.0098 17.1939 15.002 17.1939 13.1145C17.1939 11.8911 18.0204 10.4472 19.5024 9.47436C19.6178 9.39856 19.7373 9.32561 19.8606 9.25586C19.7248 9.27709 19.5857 9.30069 19.4435 9.32713C17.778 9.63685 15.6974 10.3351 13.5643 12.157C11.7786 13.6813 9.45387 16.6911 9.28078 21.077C9.27417 21.2445 9.27069 21.414 9.27051 21.5855C9.27051 21.5855 9.32839 21.4003 9.43521 21.1073C9.81673 20.0607 10.8225 17.6379 12.0444 17.3606C13.2694 17.0831 14.0016 18.1031 13.9424 18.8581V27.9453C13.9424 28.8665 13.3425 29.0677 12.7905 29.0577C12.4949 29.0523 12.123 28.9848 11.8867 28.9353C11.7462 28.9059 11.6537 28.8828 11.6537 28.8828C11.7014 28.9477 11.7495 29.0119 11.7978 29.0753C14.9754 33.2434 19.4184 34.0024 21.4158 33.9926L24.9207 30.5002L27.0077 32.8189ZM21.205 33.7529L24.8587 30.1614L26.9265 32.4625C30.8446 30.3946 32.3527 27.7049 33.27 25.2172C32.4795 26.0039 31.9152 26.4636 31.1281 26.9331C30.6667 27.2082 30.2054 27.3921 29.7617 27.4158C29.311 27.4399 28.805 27.3917 28.4347 27.0363C28.4347 27.0363 28.2519 26.8653 28.2519 26.6393C28.2514 26.5878 28.2506 26.512 28.2495 26.4144C28.2475 26.2193 28.2446 26.0515 28.2411 25.7043C28.2341 25.0099 28.2249 24.0545 28.2156 23.0103C28.197 20.922 28.1784 18.4154 28.1784 16.9934C28.1784 15.0339 28.9873 13.5617 29.9117 12.3592C30.3919 11.7346 30.832 11.2697 31.4043 10.7422C29.5347 11.1332 27.6284 11.8196 25.3343 14.0557C25.143 14.2429 24.9236 14.479 24.6885 14.7614L24.5933 14.8758L24.4544 14.8313C23.9103 14.4737 23.5155 14.3269 23.0396 14.2871C22.894 14.275 22.7032 14.285 22.5887 14.2871C22.8681 14.5239 23.0275 14.7522 23.2355 15.1012C23.5331 15.6008 23.7377 16.1858 23.7377 16.7269V26.7273L23.6845 26.7737L23.5822 26.6566C23.6845 26.7737 23.6844 26.7738 23.6844 26.7738L23.6843 26.7739L23.684 26.7741L23.6829 26.7751C23.6819 26.7759 23.6806 26.7771 23.6789 26.7785C23.6754 26.7815 23.6704 26.7858 23.6638 26.7914C23.6507 26.8026 23.6315 26.8188 23.6068 26.8392C23.5573 26.8802 23.4854 26.9384 23.3952 27.0081C23.2151 27.1474 22.961 27.3332 22.6654 27.5194C22.0821 27.8866 21.3071 28.2745 20.613 28.2745C19.7846 28.2745 19.0858 27.772 18.8106 27.4095C18.6947 27.2572 18.4739 27.0159 18.4739 26.7914L18.5463 15.3133C18.5463 15.3133 18.5575 14.9936 18.4739 15.01C18.2754 15.0491 17.8806 15.0358 17.6601 14.9386C17.2055 14.7384 16.8516 14.1984 16.8516 13.1145C16.8516 11.9124 17.4628 10.6253 18.7951 9.63836C17.2126 9.97593 15.6263 10.6003 13.6653 12.2752L13.6652 12.2753C11.9699 13.7224 10.306 16.0285 9.65298 19.5889C9.91729 18.9204 10.0743 18.6941 10.6325 18.0031C10.9728 17.5817 11.4802 17.264 11.9229 17.1635C12.588 17.0128 13.2172 17.2603 13.5825 17.6098C13.9401 17.9522 14.1291 18.4374 14.0978 18.8639V27.9453C14.0978 28.4424 13.9338 28.7748 13.6667 28.9751C13.4078 29.1693 13.0789 29.2185 12.7877 29.2132H12.7876C12.5436 29.2087 12.2561 29.1647 12.0308 29.1224C15.1275 33.0721 19.2317 33.7464 21.205 33.7529Z" fill="#E1E2E2" fill-opacity="0.7"/>
<defs>
<filter id="filter0_d_13868_16982" x="6.92773" y="8.88281" width="28.8926" height="29.1094" filterUnits="userSpaceOnUse" color-interpolation-filters="sRGB">
<feFlood flood-opacity="0" result="BackgroundImageFix"/>
<feColorMatrix in="SourceAlpha" type="matrix" values="0 0 0 0 0 0 0 0 0 0 0 0 0 0 0 0 0 0 127 0" result="hardAlpha"/>
<feOffset dy="2"/>
<feGaussianBlur stdDeviation="1"/>
<feComposite in2="hardAlpha" operator="out"/>
<feColorMatrix type="matrix" values="0 0 0 0 0 0 0 0 0 0 0 0 0 0 0 0 0 0 0.25 0"/>
<feBlend mode="normal" in2="BackgroundImageFix" result="effect1_dropShadow_13868_16982"/>
<feBlend mode="normal" in="SourceGraphic" in2="effect1_dropShadow_13868_16982" result="shape"/>
</filter>
<radialGradient id="paint0_radial_13868_16982" cx="0" cy="0" r="1" gradientUnits="userSpaceOnUse" gradientTransform="translate(21.5001 21.4874) rotate(90) scale(20.2276)">
<stop offset="0.802672" stop-color="#151515"/>
<stop offset="0.931652"/>
</radialGradient>
<linearGradient id="paint1_linear_13868_16982" x1="21.5003" y1="1.10352" x2="21.5003" y2="41.8698" gradientUnits="userSpaceOnUse">
<stop stop-color="#858787"/>
<stop offset="0.151042" stop-color="#828586"/>
<stop offset="0.322917" stop-color="#989B9C"/>
<stop offset="0.458574" stop-color="#ABADAE"/>
<stop offset="0.57548" stop-color="#9FA2A3"/>
<stop offset="0.760417" stop-color="#606566"/>
<stop offset="0.877173" stop-color="#525555"/>
<stop offset="1" stop-color="#596161"/>
</linearGradient>
<radialGradient id="paint2_radial_13868_16982" cx="0" cy="0" r="1" gradientUnits="userSpaceOnUse" gradientTransform="translate(21.5003 21.4866) rotate(90) scale(20.3831)">
<stop offset="0.9389" stop-color="white"/>
<stop offset="1" stop-color="white" stop-opacity="0.6"/>
</radialGradient>
<linearGradient id="paint3_linear_13868_16982" x1="21.5456" y1="9.25586" x2="21.5456" y2="33.9927" gradientUnits="userSpaceOnUse">
<stop stop-color="#858787"/>
<stop offset="0.151042" stop-color="#828586"/>
<stop offset="0.322917" stop-color="#989B9C"/>
<stop offset="0.458574" stop-color="#ABADAE"/>
<stop offset="0.57548" stop-color="#9FA2A3"/>
<stop offset="0.760417" stop-color="#606566"/>
<stop offset="0.877173" stop-color="#525555"/>
<stop offset="1" stop-color="#596161"/>
</linearGradient>
</defs>
</svg>
