<?xml version="1.0" encoding="utf-8"?>
<svg viewBox="0 0 8 8" width="8" height="8" xmlns="http://www.w3.org/2000/svg">
  <path id="Vector" d="M 7.335 0 L 1 0 C 0.942 0 0.885 0.024 0.843 0.065 L 0.065 0.843 C 0.024 0.885 0 0.942 0 1 L 0 7.334 C 0 7.701 0.299 8 0.666 8 L 7.334 8 C 7.701 8 8 7.701 8 7.334 L 8 0.666 C 8.002 0.299 7.702 0 7.335 0 Z M 2.421 0.444 L 5.546 0.444 L 5.546 2.328 L 2.421 2.328 L 2.421 0.444 Z M 5.546 7.556 L 2.421 7.556 L 2.421 4.576 L 5.546 4.576 L 5.546 7.556 Z M 7.557 7.334 C 7.557 7.457 7.458 7.556 7.335 7.556 L 5.991 7.556 L 5.991 4.354 C 5.991 4.232 5.891 4.132 5.768 4.132 L 2.199 4.132 C 2.076 4.132 1.977 4.232 1.977 4.354 L 1.977 7.556 L 0.666 7.556 C 0.543 7.556 0.444 7.457 0.444 7.334 L 0.444 1.091 L 1.092 0.444 L 1.977 0.444 L 1.977 2.55 C 1.977 2.672 2.076 2.772 2.199 2.772 L 5.768 2.772 C 5.891 2.772 5.991 2.672 5.991 2.55 L 5.991 0.444 L 7.335 0.444 C 7.458 0.444 7.557 0.543 7.557 0.666 L 7.557 7.334 Z" fill="#808080" stroke="#808080" stroke-width="0.5" transform="matrix(0.9999999999999999, 0, 0, 0.9999999999999999, -4.440892098500626e-16, 0)"/>
</svg>