<svg width="17" height="17" viewBox="0 0 17 17" fill="none" xmlns="http://www.w3.org/2000/svg">
<g id="StaticMesh">
<g id="Group 7468">
<rect id="Rectangle 1164" x="1.16797" y="4.50644" width="5.80815" height="1.84123" rx="0.920614" fill="white"/>
<g id="Subtract">
<path fill-rule="evenodd" clip-rule="evenodd" d="M10.5137 13.6513C10.5137 13.9275 10.7382 14.1538 11.0131 14.1281C13.5269 13.8929 15.4897 11.9043 15.4897 9.48606C15.4897 7.0678 13.5269 5.07927 11.0131 4.84401C10.7382 4.81827 10.5137 5.04463 10.5137 5.32082C10.5137 5.59692 10.7385 5.81767 11.0129 5.849C13.02 6.07821 14.4897 7.6695 14.4897 9.48606C14.4897 11.3026 13.02 12.8939 11.0129 13.1231C10.7385 13.1544 10.5137 13.3752 10.5137 13.6513Z" fill="#C0C0C0"/>
<path d="M11.0129 5.849L10.9873 6.07255L11.0129 5.849ZM11.0129 13.1231L10.9873 12.8996L11.0129 13.1231ZM11.0131 14.1281L11.0341 14.3521L11.0131 14.1281ZM11.0341 14.3521C13.6503 14.1073 15.7147 12.0332 15.7147 9.48606H15.2647C15.2647 11.7754 13.4034 13.6784 10.9922 13.9041L11.0341 14.3521ZM15.7147 9.48606C15.7147 6.93889 13.6503 4.86484 11.0341 4.61999L10.9922 5.06803C13.4034 5.2937 15.2647 7.19671 15.2647 9.48606H15.7147ZM14.7147 9.48606C14.7147 7.54358 13.1473 5.86629 11.0384 5.62545L10.9873 6.07255C12.8926 6.29013 14.2647 7.79542 14.2647 9.48606H14.7147ZM11.0384 13.3467C13.1473 13.1058 14.7147 11.4285 14.7147 9.48606H14.2647C14.2647 11.1767 12.8926 12.682 10.9873 12.8996L11.0384 13.3467ZM10.2887 5.32082C10.2887 5.72701 10.6157 6.03011 10.9873 6.07255L11.0384 5.62545C10.8614 5.60524 10.7387 5.46683 10.7387 5.32082H10.2887ZM11.0341 4.61999C10.6131 4.58059 10.2887 4.92659 10.2887 5.32082H10.7387C10.7387 5.16267 10.8632 5.05596 10.9922 5.06803L11.0341 4.61999ZM10.9873 12.8996C10.6157 12.942 10.2887 13.2451 10.2887 13.6513H10.7387C10.7387 13.5053 10.8614 13.3669 11.0384 13.3467L10.9873 12.8996ZM10.9922 13.9041C10.8632 13.9162 10.7387 13.8094 10.7387 13.6513H10.2887C10.2887 14.0455 10.6131 14.3915 11.0341 14.3521L10.9922 13.9041Z" fill="#C0C0C0"/>
</g>
<path id="Vector" d="M11.5342 3.3049L9.49278 5.44943L11.5342 7.59396" stroke="#C0C0C0" stroke-width="1.5" stroke-miterlimit="10" stroke-linecap="round"/>
<rect id="Rectangle 1162" x="1.40039" y="12.7613" width="5.57554" height="1.74818" rx="0.874092" fill="#C0C0C0"/>
<rect id="Rectangle 1163" x="1.40039" y="8.68027" width="8.09272" height="1.74818" rx="0.874092" fill="#767676"/>
</g>
</g>
</svg>
