<svg width="12" height="13" viewBox="0 0 12 13" fill="none" xmlns="http://www.w3.org/2000/svg">
<g id="Group 7334">
<path id="Vector" d="M8.76185 1.7334H6.89266H5.02348H3.1543V1.6584C3.1543 0.833398 3.90197 0.233398 4.93002 0.233398H7.07958C8.01417 0.233398 8.85531 0.833398 8.85531 1.6584V1.7334H8.76185Z" fill="#CD3642"/>
<path id="Vector_2" d="M10.8913 3.2334H1.11814C0.629483 3.2334 0.303711 2.9334 0.303711 2.4834C0.303711 2.0334 0.629483 1.7334 1.11814 1.7334H10.8913C11.38 1.7334 11.7057 2.0334 11.7057 2.4834C11.7057 2.9334 11.38 3.2334 10.8913 3.2334Z" fill="#CD3642"/>
<path id="Vector_3" d="M8.60375 4.7334L8.18456 10.5667H3.82496L3.40577 4.7334H1.729L2.23203 11.4001C2.23203 11.8167 2.65123 12.2334 3.07042 12.2334H8.9391C9.35829 12.2334 9.77749 11.8167 9.77749 11.4001L10.2805 4.7334H8.60375Z" fill="#CD3642"/>
</g>
</svg>
