<svg width="16" height="16" viewBox="0 0 16 16" fill="none" xmlns="http://www.w3.org/2000/svg">
<path d="M15 14C15 13.4477 14.5523 13 14 13H2C1.44772 13 1 13.4477 1 14C1 14.5523 1.44772 15 2 15H14C14.5523 15 15 14.5523 15 14Z" fill="white"/>
<path fill-rule="evenodd" clip-rule="evenodd" d="M9 10.9974C9 11.5037 8.55228 11.9141 8 11.9141C7.44772 11.9141 7 11.5037 7 10.9974V3.82828L4.20711 6.62117C3.81658 7.01169 3.18342 7.01169 2.79289 6.62117C2.40237 6.23065 2.40237 5.59748 2.79289 5.20696L8 -0.000150681L13.2071 5.20696C13.5976 5.59748 13.5976 6.23064 13.2071 6.62117C12.8166 7.01169 12.1834 7.01169 11.7929 6.62117L9 3.82828V10.9974Z" fill="white"/>
</svg>
