<svg width="16" height="16" viewBox="0 0 16 16" fill="none" xmlns="http://www.w3.org/2000/svg">
<path d="M14 1H2C1.44772 1 1 1.44772 1 2C1 2.55228 1.44772 3 2 3H14C14.5523 3 15 2.55228 15 2C15 1.44772 14.5523 1 14 1Z" fill="white"/>
<path fill-rule="evenodd" clip-rule="evenodd" d="M13.6896 6.88977L7.58966 15.1598L3.31964 10.8898C3.19808 10.7714 3.10143 10.6299 3.03546 10.4736C2.96949 10.3173 2.93555 10.1494 2.93555 9.97973C2.93555 9.81008 2.96949 9.64213 3.03546 9.48584C3.10143 9.32954 3.19808 9.18804 3.31964 9.0697C3.55968 8.82971 3.88518 8.69494 4.22461 8.69494C4.56404 8.69494 4.8896 8.82971 5.12964 9.0697L7.28961 11.2297L11.6196 5.35974C11.823 5.0859 12.1266 4.90374 12.4639 4.85315C12.8013 4.80255 13.1448 4.8876 13.4196 5.08972C13.6935 5.2931 13.8756 5.59663 13.9262 5.93396C13.9768 6.27128 13.8918 6.615 13.6896 6.88977Z" fill="white"/>
</svg>
