<svg width="16" height="16" viewBox="0 0 16 16" fill="none" xmlns="http://www.w3.org/2000/svg">
<path d="M15 2C15 1.44772 14.5523 1 14 1H2C1.44772 1 1 1.44772 1 2C1 2.55228 1.44772 3 2 3H14C14.5523 3 15 2.55228 15 2Z" fill="white"/>
<path fill-rule="evenodd" clip-rule="evenodd" d="M9 4.91667C9 4.41041 8.55228 4 8 4C7.44772 4 7 4.41041 7 4.91667V12.0858L4.20711 9.29289C3.81658 8.90237 3.18342 8.90237 2.79289 9.29289C2.40237 9.68342 2.40237 10.3166 2.79289 10.7071L8 15.9142L13.2071 10.7071C13.5976 10.3166 13.5976 9.68342 13.2071 9.29289C12.8166 8.90237 12.1834 8.90237 11.7929 9.29289L9 12.0858V4.91667Z" fill="white"/>
</svg>
