<svg width="13" height="13" viewBox="0 0 13 13" fill="none" xmlns="http://www.w3.org/2000/svg">
<path id="Subtract" d="M4.62666 5.15383V1.68262C4.62666 1.13033 5.07437 0.682617 5.62666 0.682617H6.63303C7.18532 0.682617 7.63303 1.13033 7.63303 1.68262V5.15383H11.1298C11.6821 5.15383 12.1298 5.60154 12.1298 6.15383V7.13463C12.1298 7.68692 11.6821 8.13463 11.1298 8.13463H7.63303V11.6058C7.63303 12.1581 7.18532 12.6058 6.63303 12.6058H5.62666C5.07437 12.6058 4.62666 12.1581 4.62666 11.6058V8.13463H1.12988C0.577598 8.13463 0.129883 7.68692 0.129883 7.13463V6.15383C0.129883 5.60154 0.577598 5.15383 1.12988 5.15383H4.62666Z" fill="#00CAA5"/>
</svg>
