<?xml version="1.0" encoding="utf-8"?>
<svg viewBox="2.8448 2 6.3105 8" width="6.3105" height="8" xmlns="http://www.w3.org/2000/svg">
  <g id="Group 4890" transform="matrix(1, 0, 0, 1, 2.5454521558501146, 0.9599600577348475)">
    <path id="Vector" d="M6.60978 3.89736C6.60978 2.32579 5.31902 1.04007 3.7413 1.04007H1.01641C0.92199 1.03915 0.828331 1.057 0.740916 1.09257C0.6535 1.12814 0.574084 1.18071 0.507314 1.24722C0.440544 1.31373 0.38776 1.39284 0.352051 1.47991C0.316343 1.56699 0.298426 1.66028 0.29935 1.75434V8.32574C0.298426 8.4198 0.316343 8.51309 0.352051 8.60016C0.38776 8.68724 0.440544 8.76634 0.507314 8.83285C0.574084 8.89936 0.6535 8.95194 0.740916 8.98751C0.828331 9.02308 0.92199 9.04093 1.01641 9.04001H5.89249C5.98691 9.04093 6.08057 9.02308 6.16798 8.98751C6.2554 8.95194 6.33481 8.89936 6.40158 8.83285C6.46835 8.76634 6.52114 8.68724 6.55685 8.60016C6.59256 8.51309 6.61047 8.4198 6.60955 8.32574L6.60978 3.89736ZM5.89272 3.12592C5.75654 3.06874 5.61017 3.03954 5.46239 3.04006H4.60196V2.18299C4.6036 2.03558 4.5739 1.8895 4.51483 1.75434C4.83252 1.86618 5.12106 2.04741 5.35931 2.28474C5.59757 2.52206 5.77951 2.80948 5.89179 3.12592H5.89272ZM6.03608 8.32597C6.03722 8.34502 6.0343 8.3641 6.0275 8.38194C6.0207 8.39978 6.01017 8.41598 5.99663 8.42948C5.98308 8.44297 5.96681 8.45345 5.9489 8.46023C5.93099 8.467 5.91184 8.46992 5.89272 8.46878H1.01664C0.9975 8.46995 0.978324 8.46706 0.960385 8.4603C0.942445 8.45354 0.926151 8.44307 0.912577 8.42957C0.899004 8.41607 0.888462 8.39986 0.881648 8.382C0.874833 8.36414 0.871901 8.34504 0.873047 8.32597V1.75457C0.871901 1.73549 0.874833 1.7164 0.881648 1.69854C0.888462 1.68068 0.899004 1.66447 0.912577 1.65097C0.926151 1.63747 0.942445 1.627 0.960385 1.62024C0.978324 1.61348 0.9975 1.61059 1.01664 1.61176H3.45456C3.60651 1.61242 3.75205 1.67284 3.85949 1.77987C3.96694 1.88689 4.02759 2.03186 4.02826 2.18322V3.3259C4.02844 3.40161 4.0587 3.47418 4.11243 3.52774C4.16616 3.5813 4.23898 3.6115 4.31499 3.61174H5.46239C5.61433 3.61241 5.75987 3.67283 5.86731 3.77985C5.97476 3.88688 6.03542 4.03184 6.03608 4.1832V8.32597Z" fill="#808080" stroke="#808080" stroke-width="0.5"/>
  </g>
</svg>