<svg width="11" height="11" viewBox="0 0 11 11" fill="none" xmlns="http://www.w3.org/2000/svg">
<path id="vector" fill-rule="evenodd" clip-rule="evenodd" d="M7.4487 0.702082C7.93741 0.219097 8.72976 0.219099 9.21846 0.702082L10.2634 1.73474C10.7521 2.21772 10.7521 3.00079 10.2634 3.48378L3.06671 10.5961C2.98848 10.6735 2.88238 10.7169 2.77175 10.7169H0.54702C0.316641 10.7169 0.129883 10.5323 0.129883 10.3046V8.10596C0.129883 7.99662 0.173831 7.89177 0.252059 7.81445L7.4487 0.702082ZM8.62854 1.2851C8.46564 1.1241 8.20152 1.1241 8.03862 1.28509L6.69877 2.60926L8.33358 4.22492L9.67343 2.90076C9.83634 2.73977 9.83633 2.47874 9.67343 2.31775L8.62854 1.2851Z" fill="#F0AD4E"/>
</svg>
