<svg width="32" height="32" viewBox="0 0 32 32" fill="none" xmlns="http://www.w3.org/2000/svg">
<rect x="2" y="8" width="11" height="3.5" rx="1.75" fill="white"/>
<path fill-rule="evenodd" clip-rule="evenodd" d="M19.4551 24.3476C19.4551 24.9001 19.9046 25.3533 20.4541 25.2967C24.9902 24.8292 28.5192 21.2252 28.5192 16.8485C28.5192 12.4719 24.9902 8.86792 20.4541 8.40041C19.9046 8.34378 19.4551 8.79701 19.4551 9.34944V9.34944C19.4551 9.90159 19.905 10.3423 20.4526 10.4127C23.972 10.8654 26.5192 13.6727 26.5192 16.8485C26.5192 20.0244 23.972 22.8316 20.4526 23.2844C19.905 23.3548 19.4551 23.7955 19.4551 24.3476V24.3476Z" fill="#C0C0C0"/>
<path d="M20.4526 23.2844L20.4813 23.5075L20.4526 23.2844ZM20.4541 25.2967L20.4771 25.5205L20.4541 25.2967ZM20.4771 25.5205C25.1149 25.0425 28.7442 21.3532 28.7442 16.8485H28.2942C28.2942 21.0971 24.8655 24.6158 20.431 25.0729L20.4771 25.5205ZM28.7442 16.8485C28.7442 12.3439 25.1149 8.65458 20.4771 8.1766L20.431 8.62423C24.8655 9.08126 28.2942 12.5999 28.2942 16.8485H28.7442ZM26.7442 16.8485C26.7442 13.5483 24.1014 10.6552 20.4813 10.1895L20.4239 10.6359C23.8427 11.0757 26.2942 13.7972 26.2942 16.8485H26.7442ZM20.4813 23.5075C24.1014 23.0418 26.7442 20.1488 26.7442 16.8485H26.2942C26.2942 19.8999 23.8427 22.6214 20.4239 23.0612L20.4813 23.5075ZM19.2301 9.34944C19.2301 10.0322 19.7822 10.5533 20.4239 10.6359L20.4813 10.1895C20.0277 10.1312 19.6801 9.77099 19.6801 9.34944H19.2301ZM20.4771 8.1766C19.7795 8.1047 19.2301 8.67961 19.2301 9.34944H19.6801C19.6801 8.91442 20.0296 8.58285 20.431 8.62423L20.4771 8.1766ZM20.4239 23.0612C19.7822 23.1437 19.2301 23.6649 19.2301 24.3476H19.6801C19.6801 23.9261 20.0277 23.5659 20.4813 23.5075L20.4239 23.0612ZM20.431 25.0729C20.0296 25.1142 19.6801 24.7827 19.6801 24.3476H19.2301C19.2301 25.0175 19.7795 25.5924 20.4771 25.5205L20.431 25.0729Z" fill="#C0C0C0"/>
<path d="M21 6L18 9.5L21 13" stroke="#C0C0C0" stroke-width="2" stroke-miterlimit="10" stroke-linecap="round"/>
<rect x="3" y="23" width="10" height="3.5" rx="1.75" fill="#C0C0C0"/>
<rect x="3" y="15" width="16" height="3.5" rx="1.75" fill="#767676"/>
</svg>
