<?xml version="1.0" encoding="utf-8"?>
<svg width="16px" height="16px" viewBox="0 0 16 16" fill="none" xmlns="http://www.w3.org/2000/svg">
  <g id="revert" transform="matrix(1.124467, 0, 0, 1.124467, -5.046137, -5.643997)" style="">
    <path id="Subtract" fill-rule="evenodd" clip-rule="evenodd" d="M15.5911 14.4268C14.177 16.5424 11.3156 17.1111 9.19996 15.697C8.72818 15.3816 8.33333 14.9943 8.02024 14.5594L6.17679 15.0049C6.65443 15.8562 7.3346 16.6108 8.20175 17.1904C11.1422 19.1558 15.1191 18.3654 17.0845 15.425C19.05 12.4845 18.2596 8.50758 15.3191 6.54217C12.3787 4.57676 8.40173 5.36717 6.43632 8.3076C6.01517 8.93768 5.72055 9.61536 5.54652 10.3107L7.63908 9.80491C7.72443 9.63481 7.82125 9.46812 7.92974 9.30581C9.34385 7.19017 12.2053 6.62147 14.3209 8.03559C16.4365 9.4497 17.0052 12.3111 15.5911 14.4268Z" fill="#C0C0C0"/>
    <g id="Group 7309">
      <path id="Line 408" d="M10.7554 10.8643L10.7554 13.2551" stroke="#878787" stroke-linecap="round"/>
      <path id="Line 409" d="M10.7554 13.2554H13.1462" stroke="#878787" stroke-linecap="round"/>
    </g>
    <path id="Vector" d="M5.03906 7.94531L6.18988 10.4309L8.86748 9.85379" stroke="#C0C0C0" stroke-miterlimit="10" stroke-linecap="round"/>
  </g>
</svg>