<svg width="16" height="16" viewBox="0 0 16 16" fill="none" xmlns="http://www.w3.org/2000/svg">
<path d="M14 13H2C1.44772 13 1 13.4477 1 14C1 14.5523 1.44772 15 2 15H14C14.5523 15 15 14.5523 15 14C15 13.4477 14.5523 13 14 13Z" fill="white"/>
<path fill-rule="evenodd" clip-rule="evenodd" d="M13.6896 2.88977L7.58966 11.1598L3.31964 6.88977C3.19808 6.77143 3.10143 6.62992 3.03546 6.47363C2.96949 6.31733 2.93555 6.14938 2.93555 5.97973C2.93555 5.81008 2.96949 5.64213 3.03546 5.48584C3.10143 5.32954 3.19808 5.18804 3.31964 5.0697C3.55968 4.82971 3.88518 4.69494 4.22461 4.69494C4.56404 4.69494 4.8896 4.82971 5.12964 5.0697L7.28961 7.22973L11.6196 1.35974C11.823 1.0859 12.1266 0.903745 12.4639 0.853145C12.8013 0.802546 13.1448 0.887601 13.4196 1.08972C13.6935 1.2931 13.8756 1.59663 13.9262 1.93396C13.9768 2.27128 13.8918 2.615 13.6896 2.88977Z" fill="white"/>
</svg>
