<svg xmlns="http://www.w3.org/2000/svg" viewBox="0 0 64 64"><defs><style>.cls-1{fill:#fff;}.cls-2{fill:none;}</style></defs><g id="Layer_2" data-name="Layer 2"><g id="Layer_2-2" data-name="Layer 2"><path d="M28.92,1.29,1.29,28.92a4.32,4.32,0,0,0,0,6.12L28.92,62.71a4.26,4.26,0,0,0,1.41,1,4.34,4.34,0,0,0,4.76-1L62.72,35a4.33,4.33,0,0,0,.93-4.71,4.17,4.17,0,0,0-.93-1.41L35.09,1.29a4.4,4.4,0,0,0-1.42-1,4.39,4.39,0,0,0-3.34,0A4.26,4.26,0,0,0,28.92,1.29Z"/><path class="cls-1" d="M29.2,4.14,4.15,29.2a3.94,3.94,0,0,0,0,5.56l25,25.1a4.16,4.16,0,0,0,1.29.86A3.91,3.91,0,0,0,32,61a4,4,0,0,0,1.52-.3,4.12,4.12,0,0,0,1.28-.86l25.06-25.1A3.93,3.93,0,0,0,61,32a3.95,3.95,0,0,0-1.14-2.8L34.8,4.14a4.12,4.12,0,0,0-1.28-.86A4,4,0,0,0,32,3a3.91,3.91,0,0,0-1.51.3A4.16,4.16,0,0,0,29.2,4.14ZM40,32V48H24V32H8L32,8,56,32Z"/><rect class="cls-2" width="64" height="64"/></g></g></svg>